<svg width="83" height="73" viewBox="0 0 83 73" fill="none" xmlns="http://www.w3.org/2000/svg">
<path d="M34.3134 40.0121H49.269C49.6949 40.0121 50.1682 39.6862 50.2155 39.2672L52.9605 29.7707C53.1498 29.0724 52.6292 28.5603 52.014 28.5603H28.9181L28.5394 27.1638C28.3975 26.4655 27.7349 26 27.1196 26H24.6113C23.8067 26 23.0494 26.6052 23.0021 27.3966C22.9548 28.281 23.712 28.9793 24.5166 28.9793H25.9364L30.7165 44.8069C30.9058 45.5052 31.4738 45.9241 32.1364 45.9241H46.7896C47.5942 45.9241 48.3514 45.319 48.3987 44.5276C48.4461 43.6431 47.6888 42.9448 46.8842 42.9448H34.4081C33.6982 42.9448 33.1776 42.5259 32.9883 41.9207V41.8276C32.657 40.9431 33.3669 40.0121 34.3134 40.0121ZM34.6447 48.0655C36.0172 48.0655 37.1531 49.1828 37.1531 50.5328C37.1531 51.8828 36.0172 53 34.6447 53C33.2722 53 32.1364 51.8828 32.1364 50.5328C32.1364 49.1828 33.2722 48.0655 34.6447 48.0655ZM45.8553 48.0655C47.2278 48.0655 48.3636 49.1828 48.3636 50.5328C48.3636 51.8828 47.2278 53 45.8553 53C44.4828 53 43.3469 51.8828 43.3469 50.5328C43.3469 49.1828 44.4828 48.0655 45.8553 48.0655Z" fill="#1B2F76"/>
<circle cx="53" cy="27" r="7.66667" fill="#BF002D" stroke="white" stroke-width="1.33333"/>
<path d="M55.0048 29.517C55.1381 29.517 55.2431 29.5553 55.3198 29.632C55.3998 29.7053 55.4398 29.8037 55.4398 29.927V30.667H50.4798V30.257C50.4798 30.1737 50.4964 30.087 50.5298 29.997C50.5664 29.9037 50.6231 29.8203 50.6998 29.747L52.8948 27.547C53.0781 27.3603 53.2414 27.182 53.3848 27.012C53.5314 26.842 53.6531 26.6737 53.7498 26.507C53.8464 26.3403 53.9198 26.172 53.9698 26.002C54.0231 25.8287 54.0498 25.647 54.0498 25.457C54.0498 25.2837 54.0248 25.132 53.9748 25.002C53.9248 24.8687 53.8531 24.757 53.7598 24.667C53.6698 24.577 53.5598 24.5103 53.4298 24.467C53.3031 24.4203 53.1598 24.397 52.9998 24.397C52.8531 24.397 52.7164 24.4187 52.5898 24.462C52.4664 24.502 52.3564 24.5603 52.2598 24.637C52.1631 24.7103 52.0814 24.797 52.0148 24.897C51.9481 24.997 51.8981 25.107 51.8648 25.227C51.8081 25.3803 51.7348 25.482 51.6448 25.532C51.5548 25.582 51.4248 25.5937 51.2548 25.567L50.6048 25.452C50.6548 25.1053 50.7514 24.802 50.8948 24.542C51.0381 24.2787 51.2164 24.0603 51.4298 23.887C51.6464 23.7103 51.8931 23.5787 52.1698 23.492C52.4498 23.402 52.7498 23.357 53.0698 23.357C53.4031 23.357 53.7081 23.407 53.9848 23.507C54.2614 23.6037 54.4981 23.742 54.6948 23.922C54.8914 24.102 55.0448 24.3187 55.1548 24.572C55.2648 24.8253 55.3198 25.107 55.3198 25.417C55.3198 25.6837 55.2798 25.9303 55.1998 26.157C55.1231 26.3837 55.0181 26.6003 54.8848 26.807C54.7548 27.0137 54.6014 27.2137 54.4248 27.407C54.2481 27.6003 54.0631 27.797 53.8698 27.997L52.2398 29.662C52.3964 29.6153 52.5514 29.5803 52.7048 29.557C52.8614 29.5303 53.0098 29.517 53.1498 29.517H55.0048Z" fill="white"/>
</svg>
