<svg width="17" height="18" viewBox="0 0 17 18" fill="none" xmlns="http://www.w3.org/2000/svg">
<path d="M6.71335 0.977555C5.69434 0.978017 4.6899 1.21969 3.78214 1.68281C2.87438 2.14593 2.08906 2.81736 1.49038 3.64222C0.891698 4.46707 0.49665 5.42193 0.337526 6.42875C0.178401 7.43557 0.259716 8.46576 0.574826 9.43512C0.889935 10.4045 1.42989 11.2855 2.15056 12.0062C2.87123 12.7268 3.75216 13.2666 4.72133 13.5815C5.6905 13.8964 6.72041 13.9774 7.72687 13.8179C8.73332 13.6584 9.68776 13.2629 10.5122 12.6637L14.573 16.7255C14.763 16.9157 15.0208 17.0225 15.2897 17.0225C15.5585 17.0225 15.8163 16.9157 16.0064 16.7255C16.1965 16.5354 16.3032 16.2775 16.3032 16.0086C16.3032 15.7397 16.1965 15.4818 16.0064 15.2917L11.9456 11.2299C12.6466 10.266 13.0671 9.12677 13.1606 7.93845C13.254 6.75014 13.0166 5.55916 12.4748 4.49751C11.933 3.43587 11.1079 2.54503 10.091 1.92373C9.07403 1.30243 7.90496 0.974939 6.71335 0.977555ZM6.71335 11.8708C5.83679 11.8708 4.97992 11.6108 4.25109 11.1237C3.52226 10.6365 2.95421 9.94414 2.61876 9.13406C2.28332 8.32398 2.19555 7.43259 2.36656 6.57262C2.53757 5.71264 2.95967 4.9227 3.57949 4.30269C4.19931 3.68268 4.98901 3.26045 5.84872 3.08939C6.70843 2.91833 7.59955 3.00613 8.40938 3.34167C9.21921 3.67722 9.91139 4.24545 10.3984 4.9745C10.8854 5.70355 11.1453 6.56069 11.1453 7.43751C11.144 8.61288 10.6766 9.73973 9.84573 10.5708C9.01487 11.402 7.88836 11.8695 6.71335 11.8708Z" fill="#1B2F76"/>
</svg>
