<svg width="55" height="50" viewBox="0 0 71 43" fill="none" xmlns="http://www.w3.org/2000/svg">
<path d="M63.8645 33.0603C63.3149 28.7736 59.3824 28.6372 56.0587 28.6408H15.1037C13.7609 28.6408 12.2596 28.5117 10.9537 28.8585C7.28315 29.825 7.20562 32.8315 7.21308 35.7716L7.22046 39.5676C7.22046 40.3496 7.39384 41.8363 6.32773 42.0133C6.00679 42.0687 2.49487 42.0281 2.13704 41.9764C0.720473 41.7809 1.02664 40.5525 1.03033 39.468L1.03401 10.0524C1.03401 7.41111 0.982368 4.75873 1.01926 2.12117C1.03401 1.2063 1.31438 0.830019 2.25876 0.745214C3.74172 0.700945 6.4162 0.180796 7.20938 1.48301C7.24258 2.08062 7.22045 2.69295 7.22045 3.29064L7.21307 19.6105C7.20569 21.7464 6.74088 22.4953 9.12761 22.5322C13.9306 22.606 18.7489 22.5359 23.5549 22.5359H66.816C70.1987 22.5137 69.8852 22.4473 69.8815 25.5498V37.1222C69.8815 38.5682 70.5271 41.7224 68.8044 41.9548C68.0998 42.0507 65.4621 42.0765 64.8055 41.9253C63.6029 41.6523 63.9423 39.9148 63.9423 39.022L63.946 35.7057C63.946 34.824 63.9644 33.9386 63.8611 33.0606L63.8645 33.0603Z" fill="#1B2F76" stroke="#1B2F76"/>
<path d="M27.7218 9.81469C27.9579 9.51588 28.1645 9.4089 28.5297 9.32037C30.6509 9.22076 32.8127 9.30192 34.9375 9.30192L54.998 9.29823C56.5032 9.29823 58.0894 9.19863 59.5798 9.39783C66.1425 10.2721 68.1973 19.056 65.6813 19.4356C64.8845 19.491 64.0508 19.4356 63.254 19.4356L29.8097 19.432C27.3123 19.4209 27.6516 19.2143 27.648 16.9087L27.6443 11.7256C27.6406 11.0911 27.6 10.4345 27.7217 9.81109L27.7218 9.81469ZM18.8388 19.4285L14.2719 19.4358C13.2427 19.4358 12.184 19.4875 11.1584 19.3694C8.79374 19.0965 10.594 11.475 16.9464 10.6634C21.3584 10.051 25.2023 13.7621 25.3831 18.0709C25.4569 19.8453 23.7267 19.4395 22.5057 19.4358L18.8388 19.4248V19.4285Z" fill="#1B2F76"/>
</svg>
