<svg width="55" height="50" viewBox="0 0 55 50" fill="none" xmlns="http://www.w3.org/2000/svg">
<path d="M2.99931 48.9961H13.0947C14.7526 48.9961 16.0966 47.5249 16.0966 45.7101V26.121C16.0966 24.3062 14.7526 22.835 13.0947 22.835H2.99931C1.3414 22.835 -0.00259781 24.3062 -0.00259781 26.121V45.7101C-0.00259781 47.5249 1.3414 48.9961 2.99931 48.9961Z" fill="#1B2F76"/>
<circle cx="8.29849" cy="41.883" r="2.26394" fill="#1B2F76"/>
<path d="M18.811 46.8819C18.811 47.3071 18.7651 47.7324 18.6617 48.1347C18.6961 48.1462 18.7191 48.1577 18.7536 48.1692C18.9375 48.2266 19.1214 48.2726 19.3053 48.3186C24.3626 49.6174 29.6612 49.6289 34.8795 49.6289H44.8906C46.0745 49.6289 47.3274 49.6174 48.3503 49.0197C50.1778 47.9508 50.4882 45.0084 48.925 43.5946C50.5226 43.5946 52.0743 42.4683 52.5686 40.9396C53.0513 39.4109 52.4421 37.5948 51.1203 36.6753C52.7984 36.319 54.1546 34.8018 54.3156 33.1007C54.4765 31.3997 53.442 29.6411 51.8674 28.9744C52.9478 28.3308 53.7524 27.2159 53.9363 25.9745C54.1087 24.7217 53.626 23.3884 52.626 22.6183C51.4536 21.7103 49.833 21.6988 48.3503 21.7218C46.6836 21.7448 45.0171 21.7793 43.3505 21.8022C40.9138 21.8483 38.3546 21.7933 37.1132 19.7014C36.4121 18.529 36.4696 17.0348 36.8604 15.7245C37.2627 14.4142 37.9638 13.2188 38.5155 11.966C39.6075 9.49482 39.7873 6.60739 39.6724 3.90629C39.638 2.96385 39.5 1.98683 38.9828 1.21676C36.9254 -1.82914 34.5117 1.56156 33.8335 3.57299C30.983 12.044 25.6154 19.6529 18.6041 25.1814C18.7421 25.6642 18.811 26.1585 18.811 26.6756V46.8819Z" fill="#1B2F76"/>
</svg>
