<svg width="52" height="65" viewBox="0 0 52 65" fill="none" xmlns="http://www.w3.org/2000/svg">
<path d="M19.1481 51.6033C19.5996 51.7404 20.0334 51.9298 20.4409 52.1677L15.2349 64.9447L13.0603 57.4158C12.9915 57.1801 12.8322 56.9814 12.6171 56.863C12.4021 56.7447 12.1489 56.7164 11.9131 56.7844C11.8436 56.8041 11.7768 56.8321 11.714 56.8678L4.89993 60.7354L9.87334 48.522C10.3479 49.4477 11.0596 50.2308 11.9359 50.7914C13.2615 51.5684 14.7968 51.512 16.34 51.4549C17.2783 51.3698 18.224 51.4198 19.1481 51.6033ZM40.0634 50.7907C38.7378 51.567 37.2025 51.5106 35.6593 51.4542C34.7217 51.3696 33.7767 51.4198 32.8533 51.6033C32.4017 51.7403 31.9678 51.93 31.5606 52.1684L36.7587 64.9447L38.934 57.4158C39.0028 57.1803 39.162 56.9817 39.3769 56.8633C39.5918 56.745 39.8448 56.7166 40.0805 56.7844C40.1502 56.8041 40.2173 56.8321 40.2803 56.8678L47.0944 60.7354L42.121 48.522C41.6467 49.4474 40.9355 50.2305 40.0598 50.7914L40.0634 50.7907ZM52 26.7384C52 27.8621 51.2759 29.0136 50.5624 30.1487C49.9263 31.0565 49.4259 32.0523 49.077 33.1045C48.836 34.2049 48.7638 35.3355 48.863 36.4577C48.9101 37.7333 48.9565 39.0018 48.4535 39.8601C47.9505 40.7183 46.8254 41.287 45.7017 41.8577C44.686 42.3071 43.7471 42.913 42.9193 43.6534C42.179 44.4814 41.5731 45.4203 41.1236 46.4359C40.5528 47.5595 39.9778 48.6868 39.1259 49.1876C38.2741 49.6885 36.9991 49.6442 35.7235 49.5979C34.6014 49.4983 33.4707 49.5705 32.3703 49.8119C31.5183 50.0769 30.7081 50.4612 29.9639 50.9534C29.9301 50.9717 29.8975 50.9919 29.8661 51.014C29.7156 51.1068 29.5651 51.2017 29.4145 51.2994C28.273 52.0171 27.1208 52.7449 25.9971 52.7449C24.8735 52.7449 23.7213 52.0207 22.5869 51.3073C22.4356 51.2124 22.2851 51.1175 22.1339 51.0219C22.1027 51.0001 22.0703 50.9801 22.0368 50.962C21.2926 50.4698 20.4824 50.0855 19.6304 49.8204C18.53 49.5794 17.3993 49.5072 16.2772 49.6064C15.0023 49.6528 13.7331 49.6992 12.8748 49.1969C12.0165 48.6946 11.4479 47.5688 10.8772 46.4444C10.4273 45.4288 9.82116 44.49 9.0807 43.662C8.25282 42.9214 7.31394 42.3153 6.29827 41.8656C5.1746 41.2948 4.04736 40.7205 3.54652 39.8679C3.04569 39.0154 3.09064 37.7404 3.13701 36.4648C3.23618 35.3427 3.16401 34.212 2.92298 33.1116C2.57428 32.0596 2.07387 31.064 1.43759 30.1565C0.724145 29.0214 0 27.8692 0 26.7456C0 25.6219 0.723431 24.4697 1.43759 23.3346C2.07374 22.4268 2.57413 21.431 2.92298 20.3788C3.16437 19.2772 3.23654 18.1453 3.13701 17.0221C3.08992 15.7464 3.04355 14.4779 3.54652 13.6196C4.0495 12.7614 5.1746 12.1928 6.29827 11.622C7.31413 11.1726 8.25307 10.5664 9.0807 9.82555C9.82117 8.99774 10.4271 8.05884 10.8764 7.04313C11.4472 5.91874 12.0222 4.7915 12.8741 4.29138C13.7259 3.79125 15.0009 3.83477 16.2765 3.88115C17.3986 3.98071 18.5293 3.90854 19.6297 3.66711C20.6821 3.31887 21.678 2.81843 22.5855 2.18173C23.7213 1.45901 24.8735 0.734863 25.9971 0.734863C27.1208 0.734863 28.2723 1.45901 29.4074 2.17245C30.3152 2.80964 31.3112 3.31078 32.3639 3.65998C33.4643 3.90105 34.595 3.97322 35.7171 3.87401C36.992 3.82764 38.2605 3.78055 39.1195 4.28353C39.9785 4.78651 40.5464 5.9116 41.1171 7.03599C41.567 8.0516 42.1731 8.99046 42.9136 9.81842C43.7415 10.559 44.6804 11.1652 45.696 11.6149C46.8197 12.1856 47.9469 12.7599 48.4478 13.6125C48.9486 14.4651 48.9037 15.74 48.8573 17.0149C48.7577 18.1384 48.8299 19.2706 49.0713 20.3724C49.4202 21.4246 49.9206 22.4203 50.5567 23.3282C51.2759 24.4625 52 25.614 52 26.7384ZM42.6468 26.7384C42.6469 22.8867 41.3116 19.154 38.8682 16.1764C36.4249 13.1988 33.0247 11.1606 29.247 10.4089C25.4693 9.65718 21.5478 10.2386 18.1507 12.054C14.7536 13.8695 12.0911 16.8067 10.6168 20.3651C9.14251 23.9235 8.94764 27.8831 10.0654 31.5691C11.1831 35.2551 13.5444 38.4395 16.7468 40.5797C19.9492 42.72 23.7946 43.6837 27.6278 43.3066C31.4611 42.9295 35.045 41.2349 37.769 38.5117C39.3175 36.9674 40.5456 35.1322 41.3827 33.1118C42.2198 31.0914 42.6494 28.9254 42.6468 26.7384ZM36.6274 22.0875L29.3831 21.6238L26.7049 14.8796C26.6358 14.7079 26.517 14.5609 26.3636 14.4573C26.2103 14.3537 26.0295 14.2984 25.8445 14.2984C25.6594 14.2984 25.4786 14.3537 25.3253 14.4573C25.172 14.5609 25.0531 14.7079 24.9841 14.8796L22.3058 21.6238L15.0943 22.0854C14.9058 22.0906 14.7234 22.1532 14.5713 22.2647C14.4193 22.3763 14.3049 22.5316 14.2433 22.7098C14.1818 22.8881 14.1761 23.0809 14.2269 23.2625C14.2777 23.4441 14.3827 23.6059 14.5278 23.7263L20.1134 28.3572L18.3155 35.3904C18.2694 35.57 18.2782 35.7592 18.3408 35.9338C18.4034 36.1083 18.5168 36.2601 18.6665 36.3696C18.8161 36.479 18.9952 36.5411 19.1805 36.5477C19.3658 36.5544 19.5488 36.5054 19.706 36.407L25.8416 32.5223L31.9187 36.3692C32.0728 36.4834 32.2584 36.547 32.4501 36.5514C32.6418 36.5557 32.8301 36.5005 32.9891 36.3934C33.1482 36.2863 33.2701 36.1326 33.3381 35.9533C33.4062 35.7741 33.417 35.5782 33.3692 35.3925L31.5713 28.3594L37.1575 23.7284C37.301 23.61 37.4056 23.4511 37.4576 23.2724C37.5096 23.0938 37.5066 22.9037 37.4492 22.7267C37.3917 22.5497 37.2823 22.3941 37.1353 22.2802C36.9882 22.1662 36.8103 22.099 36.6246 22.0875H36.6274Z" fill="#1B2F76"/>
</svg>
