<svg width="10" height="7" viewBox="0 0 10 7" fill="none" xmlns="http://www.w3.org/2000/svg">
<path d="M8.99897 1.70954C8.99923 1.54404 8.95283 1.38366 8.86783 1.25623C8.81997 1.18451 8.76118 1.12522 8.69484 1.08177C8.62851 1.03831 8.55592 1.01154 8.48124 1.00299C8.40657 0.994437 8.33126 1.00427 8.25965 1.03192C8.18803 1.05958 8.12151 1.10451 8.0639 1.16415L5.00782 4.3373L1.94604 1.27748C1.88772 1.21865 1.82061 1.17471 1.74858 1.1482C1.67654 1.12168 1.601 1.11312 1.52629 1.12299C1.45159 1.13286 1.37918 1.16098 1.31325 1.20573C1.24732 1.25047 1.18916 1.31096 1.14211 1.38372C1.0902 1.45701 1.05105 1.54283 1.02711 1.6358C1.00317 1.72877 0.994955 1.82689 1.00299 1.92399C1.01102 2.02109 1.03512 2.11508 1.07378 2.20007C1.11243 2.28505 1.16481 2.35919 1.22763 2.41783L4.64862 5.83887C4.75064 5.94305 4.87861 6 5.01067 6C5.14274 6 5.2707 5.94305 5.37273 5.83887L8.79371 2.29742C8.86271 2.22636 8.91725 2.1361 8.95292 2.03396C8.98858 1.93182 9.00436 1.82067 8.99897 1.70954Z" fill="#1B2F76" stroke="white" stroke-width="0.2"/>
</svg>
