<svg width="12" height="16" viewBox="0 0 12 16" fill="none" xmlns="http://www.w3.org/2000/svg">
<path d="M5.99129 1C3.24739 1 1 3.30651 1 6.1226C1 8.9387 5.45122 14.553 5.63415 14.8123C5.72125 14.9285 5.86063 15 6 15C6.13937 15 6.27003 14.9285 6.36585 14.8123C6.54878 14.553 11 8.82248 11 6.1226C11 3.42273 8.73519 1 5.99129 1ZM5.99129 8.2235C4.74564 8.2235 3.72648 7.17752 3.72648 5.89911C3.72648 4.62069 4.74564 3.57471 5.99129 3.57471C7.23693 3.57471 8.2561 4.62069 8.2561 5.89911C8.2561 7.17752 7.23693 8.2235 5.99129 8.2235Z" fill="#1B2F76" stroke="white" stroke-width="0.166667"/>
</svg>
